<?xml version="1.0" encoding="utf-8"?>
<!-- Generator: Adobe Illustrator 16.0.0, SVG Export Plug-In . SVG Version: 6.00 Build 0)  -->
<!DOCTYPE svg PUBLIC "-//W3C//DTD SVG 1.1//EN" "http://www.w3.org/Graphics/SVG/1.1/DTD/svg11.dtd">
<svg version="1.1" xmlns="http://www.w3.org/2000/svg" xmlns:xlink="http://www.w3.org/1999/xlink" x="0px" y="0px" width="65px"
	 height="65px" viewBox="0 0 65 65" enable-background="new 0 0 65 65" xml:space="preserve">
<g id="Layer_2_1_">
</g>
<g id="Layer_1">
	<g>
		<path fill="#FFFFFF" d="M59.125,24.376c0,1.753-1.434,3.188-3.188,3.188H8.397c-1.753,0-3.187-1.435-3.187-3.188l0,0
			c0-1.753,1.434-3.188,3.187-3.188h47.54C57.691,21.188,59.125,22.623,59.125,24.376L59.125,24.376z"/>
		<path fill="#FFFFFF" d="M52.428,41.625c0,1.752-1.434,3.188-3.188,3.188H18.7c-1.753,0-3.187-1.436-3.187-3.188l0,0
			c0-1.754,1.434-3.188,3.187-3.188h30.54C50.994,38.438,52.428,39.871,52.428,41.625L52.428,41.625z"/>
		<path fill="#FFFFFF" d="M25.543,58.873c0,1.752-1.434,3.188-3.188,3.188H8.816c-1.753,0-3.187-1.436-3.187-3.188l0,0
			c0-1.754,1.434-3.188,3.187-3.188h13.54C24.109,55.686,25.543,57.119,25.543,58.873L25.543,58.873z"/>
		<path fill="#FFFFFF" d="M45.498,7.127c0,1.753-1.434,3.188-3.188,3.188H28.77c-1.752,0-3.187-1.435-3.187-3.188l0,0
			c0-1.753,1.435-3.188,3.187-3.188h13.541C44.064,3.94,45.498,5.375,45.498,7.127L45.498,7.127z"/>
	</g>
</g>
</svg>
