<?xml version="1.0" encoding="utf-8"?>
<!-- Generator: Adobe Illustrator 16.0.0, SVG Export Plug-In . SVG Version: 6.00 Build 0)  -->
<svg version="1.2" baseProfile="tiny" xmlns="http://www.w3.org/2000/svg" xmlns:xlink="http://www.w3.org/1999/xlink" x="0px"
	 y="0px" width="65px" height="65px" viewBox="0 0 65 65" xml:space="preserve">
<g id="Layer_2" display="none">
	<rect x="4" y="1" display="inline" fill="#8C6239" width="59" height="64"/>
</g>
<g id="Layer_1">
	<g>
		<g>
			<path fill="#FFFFFF" d="M47.047,52.174H18.363c-2.585,0-5.011-1.07-6.658-2.939c-1.646-1.863-2.406-4.406-2.083-6.971
				l3.617-28.785c0.643-5.112,5.181-9.115,10.33-9.115h18.273c5.149,0,9.688,4.003,10.33,9.115l3.617,28.785
				c0.322,2.564-0.438,5.107-2.084,6.971C52.059,51.104,49.633,52.174,47.047,52.174z M23.568,10.738
				c-1.897,0-3.769,1.651-4.006,3.534l-3.616,28.788c-0.097,0.76,0.095,1.457,0.538,1.961c0.444,0.5,1.111,0.777,1.878,0.777h28.684
				c0.768,0,1.436-0.277,1.879-0.777c0.443-0.504,0.635-1.201,0.539-1.961l-3.617-28.788c-0.236-1.883-2.108-3.534-4.006-3.534
				H23.568z"/>
		</g>
		<path fill="#FFFFFF" d="M33,8h-9.431c-3.506,0-6.732,2.622-7.169,6.101l-3.617,28.679C12.346,46.258,14.857,49,18.363,49H33V8z"/>
		<g>
			<path fill="#FFFFFF" d="M59.662,58.812c0,1.752-1.434,3.188-3.188,3.188H8.935c-1.753,0-3.187-1.436-3.187-3.188l0,0
				c0-1.754,1.434-3.188,3.187-3.188h47.54C58.229,55.625,59.662,57.059,59.662,58.812L59.662,58.812z"/>
		</g>
	</g>
</g>
</svg>
