<?xml version="1.0" encoding="utf-8"?>
<!-- Generator: Adobe Illustrator 16.0.0, SVG Export Plug-In . SVG Version: 6.00 Build 0)  -->
<!DOCTYPE svg PUBLIC "-//W3C//DTD SVG 1.1//EN" "http://www.w3.org/Graphics/SVG/1.1/DTD/svg11.dtd">
<svg version="1.1" xmlns="http://www.w3.org/2000/svg" xmlns:xlink="http://www.w3.org/1999/xlink" x="0px" y="0px" width="65px"
	 height="65px" viewBox="0 0 65 65" enable-background="new 0 0 65 65" xml:space="preserve">
<g id="Layer_2_1_">
</g>
<g id="Layer_1">
	<g>
		<g>
			<path fill="#FFFFFF" d="M51.996,14.97c1.753,0,3.188,1.435,3.188,3.188v28.685c0,1.752-1.435,3.187-3.188,3.187H10.562
				c-1.753,0-3.187-1.435-3.187-3.187V18.158c0-1.753,1.434-3.188,3.187-3.188H51.996 M51.996,8.596H10.562
				c-5.272,0-9.562,4.289-9.562,9.562v28.685c0,5.271,4.289,9.561,9.562,9.561h41.434c5.272,0,9.562-4.289,9.562-9.561V18.158
				C61.558,12.885,57.269,8.596,51.996,8.596L51.996,8.596z"/>
		</g>
	</g>
	<g>
		<g>
			<polygon fill="#FFFFFF" points="31.279,38.176 5.385,17.459 9.366,12.482 31.279,30.012 53.191,12.482 57.175,17.459 			"/>
		</g>
	</g>
</g>
</svg>
