<?xml version="1.0" encoding="utf-8"?>
<!-- Generator: Adobe Illustrator 16.0.0, SVG Export Plug-In . SVG Version: 6.00 Build 0)  -->
<!DOCTYPE svg PUBLIC "-//W3C//DTD SVG 1.1//EN" "http://www.w3.org/Graphics/SVG/1.1/DTD/svg11.dtd">
<svg version="1.1" xmlns="http://www.w3.org/2000/svg" xmlns:xlink="http://www.w3.org/1999/xlink" x="0px" y="0px" width="65px"
	 height="65px" viewBox="0 0 65 65" enable-background="new 0 0 65 65" xml:space="preserve">
<g id="Layer_2_1_">
</g>
<g id="Layer_1">
	<g>
		<g>
			<g>
				<circle fill="#FFFFFF" cx="32.615" cy="14.911" r="12.749"/>
			</g>
		</g>
		<g>
			<g>
				<path fill="#FFFFFF" d="M47.057,36.275c0.473,0,1.282,0.662,1.375,1.125l3.599,17.998H13.399L16.998,37.4
					c0.093-0.463,0.902-1.125,1.374-1.125H47.057 M47.057,29.9H18.372c-3.506,0-6.937,2.812-7.624,6.25L6.874,55.521
					c-0.688,3.438,1.618,6.251,5.124,6.251h41.434c3.506,0,5.812-2.813,5.124-6.251L54.682,36.15
					C53.994,32.713,50.563,29.9,47.057,29.9L47.057,29.9z"/>
			</g>
		</g>
	</g>
</g>
</svg>
