<?xml version="1.0" encoding="utf-8"?>
<!-- Generator: Adobe Illustrator 16.0.0, SVG Export Plug-In . SVG Version: 6.00 Build 0)  -->
<svg version="1.2" baseProfile="tiny" xmlns="http://www.w3.org/2000/svg" xmlns:xlink="http://www.w3.org/1999/xlink" x="0px"
	 y="0px" width="65px" height="65px" viewBox="0 0 65 65" xml:space="preserve">
<g id="Layer_2" display="none">
	<rect x="4" y="1" display="inline" fill="#8C6239" width="59" height="64"/>
</g>
<g id="Layer_1">
	<g>
		<path fill="#FFFFFF" d="M53.187,57.057H11.753c-5.272,0-9.562-4.288-9.562-9.561V33.153c0-5.272,4.289-9.562,9.562-9.562h41.434
			c5.272,0,9.562,4.289,9.562,9.562v14.343C62.748,52.769,58.459,57.057,53.187,57.057z M11.753,29.966
			c-1.759,0-3.187,1.43-3.187,3.187v14.343c0,1.758,1.428,3.187,3.187,3.187h41.434c1.759,0,3.188-1.429,3.188-3.187V33.153
			c0-1.757-1.429-3.187-3.188-3.187H11.753z"/>
	</g>
	<g>
		<path fill="#FFFFFF" d="M51.743,58.65c0,1.754-1.434,3.188-3.187,3.188H16.384c-1.753,0-3.188-1.434-3.188-3.188V49.09
			c0-1.754,1.435-3.188,3.188-3.188h32.173c1.753,0,3.187,1.434,3.187,3.188V58.65z"/>
	</g>
	<path fill="#FFFFFF" d="M20,26V14h25.219l-0.008,12H52V14.03C52,10.515,48.732,8,45.219,8H19.722C16.207,8,13,10.515,13,14.03V26
		H20z"/>
</g>
</svg>
