<?xml version="1.0" encoding="utf-8"?>
<!-- Generator: Adobe Illustrator 16.0.0, SVG Export Plug-In . SVG Version: 6.00 Build 0)  -->
<svg version="1.2" baseProfile="tiny" id="Layer_1" xmlns="http://www.w3.org/2000/svg" xmlns:xlink="http://www.w3.org/1999/xlink"
	 x="0px" y="0px" width="65px" height="65px" viewBox="0 0 65 65" overflow="auto" xml:space="preserve">
<g>
	<g>
		<g>
			<path fill="#FFFFFF" d="M44.215,36.912c-0.57,1.564-2.384,2.354-4.031,1.754l-8.235-2.997c-1.647-0.6-2.529-2.37-1.959-3.936
				c0.57-1.564,2.383-2.354,4.031-1.755l8.236,2.998C43.902,33.576,44.785,35.347,44.215,36.912z"/>
		</g>
	</g>
	<g>
		<g>
			<path fill="#FFFFFF" d="M35.588,32.46c0,1.752-1.362,3.187-3.028,3.187s-3.028-1.435-3.028-3.187V17.64
				c0-1.753,1.362-3.188,3.028-3.188s3.028,1.435,3.028,3.188V32.46z"/>
		</g>
	</g>
	<g>
		<g>
			<path fill="#FFFFFF" d="M32.56,8.337c13.18,0,23.904,10.724,23.904,23.904S45.74,56.145,32.56,56.145
				c-13.181,0-23.904-10.723-23.904-23.903S19.379,8.337,32.56,8.337 M32.56,1.963c-16.722,0-30.278,13.556-30.278,30.278
				c0,16.722,13.556,30.278,30.278,30.278s30.278-13.557,30.278-30.278C62.838,15.519,49.282,1.963,32.56,1.963L32.56,1.963z"/>
		</g>
	</g>
</g>
</svg>
