<?xml version="1.0" encoding="utf-8"?>
<!-- Generator: Adobe Illustrator 16.0.0, SVG Export Plug-In . SVG Version: 6.00 Build 0)  -->
<svg version="1.2" baseProfile="tiny" xmlns="http://www.w3.org/2000/svg" xmlns:xlink="http://www.w3.org/1999/xlink" x="0px"
	 y="0px" width="65px" height="65px" viewBox="0 0 65 65" xml:space="preserve">
<g id="Layer_2" display="none">
	<rect x="4" y="1" display="inline" fill="#8C6239" width="59" height="64"/>
</g>
<g id="Layer_1">
	<path fill="#FFFFFF" d="M48.217,9.493c1.753,0,3.188,1.435,3.188,3.188v38.685c0,1.752-1.435,3.187-3.188,3.187H16.783
		c-1.753,0-3.187-1.435-3.187-3.187V12.68c0-1.753,1.434-3.188,3.187-3.188H48.217 M48.217,3.119H16.783
		c-5.272,0-9.562,4.289-9.562,9.562v38.685c0,5.271,4.289,9.561,9.562,9.561h31.434c5.272,0,9.562-4.289,9.562-9.561V12.68
		C57.778,7.408,53.489,3.119,48.217,3.119L48.217,3.119z"/>
	<rect x="12" y="9" fill="#FFFFFF" width="41" height="11"/>
</g>
</svg>
