<?xml version="1.0" encoding="utf-8"?>
<!-- Generator: Adobe Illustrator 16.0.0, SVG Export Plug-In . SVG Version: 6.00 Build 0)  -->
<!DOCTYPE svg PUBLIC "-//W3C//DTD SVG 1.1//EN" "http://www.w3.org/Graphics/SVG/1.1/DTD/svg11.dtd">
<svg version="1.1" xmlns="http://www.w3.org/2000/svg" xmlns:xlink="http://www.w3.org/1999/xlink" x="0px" y="0px" width="65px"
	 height="65px" viewBox="0 0 65 65" enable-background="new 0 0 65 65" xml:space="preserve">
<g id="Layer_2_1_">
</g>
<g id="Layer_1">
	<g>
		<path fill="#FFFFFF" d="M32.561,8.337c13.18,0,23.903,10.724,23.903,23.904S45.74,56.145,32.561,56.145
			c-13.181,0-23.904-10.723-23.904-23.903S19.379,8.337,32.561,8.337 M32.561,1.963c-16.723,0-30.279,13.556-30.279,30.278
			c0,16.722,13.556,30.278,30.279,30.278c16.722,0,30.277-13.557,30.277-30.278C62.838,15.519,49.282,1.963,32.561,1.963
			L32.561,1.963z"/>
		<polygon fill="#FFFFFF" points="32.56,6.5 32.5,32.5 55.125,47.5 59.875,33.875 49.75,12.625 		"/>
	</g>
</g>
</svg>
