<?xml version="1.0" encoding="utf-8"?>
<!-- Generator: Adobe Illustrator 16.0.0, SVG Export Plug-In . SVG Version: 6.00 Build 0)  -->
<svg version="1.2" baseProfile="tiny" xmlns="http://www.w3.org/2000/svg" xmlns:xlink="http://www.w3.org/1999/xlink" x="0px"
	 y="0px" width="65px" height="65px" viewBox="0 0 65 65" xml:space="preserve">
<g id="Layer_2" display="none">
	<rect x="4" y="1" display="inline" fill="#8C6239" width="59" height="64"/>
</g>
<g id="Layer_1">
	<g>
		<g>
			<g>
				<g>
					<path fill="#FFFFFF" d="M57.998,27.72c3.506-0.001,6.374,2.15,6.374,4.78c0,2.629-2.868,4.781-6.375,4.781H7.002
						c-3.506,0-6.374-2.152-6.374-4.781c0-2.629,2.868-4.78,6.375-4.781L57.998,27.72z"/>
				</g>
			</g>
		</g>
		<g>
			<g>
				<g>
					<path fill="#FFFFFF" d="M32.5,0.628c2.63,0,4.781,2.868,4.781,6.375v50.995c0,3.506-2.151,6.373-4.781,6.373
						c-2.629,0-4.78-2.867-4.78-6.373l0-50.996C27.719,3.497,29.871,0.628,32.5,0.628z"/>
				</g>
			</g>
		</g>
	</g>
</g>
</svg>
